<svg width="209" height="40" viewBox="0 0 209 40" fill="none" xmlns="http://www.w3.org/2000/svg">
<g filter="url(#filter0_d_198_3)">
<path d="4.33984 162.506 4.17578C162.014 3.98438 161.576 3.88867 161.193 3.88867C160.428 3.88867 159.676 4.12109 158.938 4.58594C158.199 5.05078 157.639 5.67969 157.256 6.47266C157.119 6.82812 156.996 7.41602 156.887 8.23633C156.805 8.94727 156.75 9.93164 156.723 11.1895C156.695 12.4473 156.736 14.1016 156.846 16.1523C157.885 16.3164 158.801 16.3848 159.594 16.3574C160.387 16.3027 161.057 16.207 161.604 16.0703C162.26 15.9336 162.82 15.7422 163.285 15.4961ZM181.947 3.23242C183.315 3.31445 184.463 3.38281 185.393 3.4375C186.35 3.46484 187.143 3.49219 187.772 3.51953C188.482 3.54687 189.084 3.54687 189.576 3.51953C190.068 3.49219 190.738 3.42383 191.586 3.31445C192.297 3.23242 193.24 3.10938 194.416 2.94531C195.619 2.75391 197.109 2.50781 198.887 2.20703C198.258 2.83594 197.766 3.41016 197.41 3.92969C197.082 4.42188 196.822 4.8457 196.631 5.20117C196.412 5.63867 196.262 6.00781 196.18 6.30859C196.125 6.58203 196.18 7.26563 196.344 8.35938C196.508 9.45312 196.74 10.752 197.041 12.2559C197.342 13.7324 197.67 15.3184 198.025 17.0137C198.381 18.6816 198.736 20.2539 199.092 21.7305C199.447 23.1797 199.762 24.4238 200.035 25.4629C200.336 26.4746 200.555 27.0762 200.691 27.2676C201.102 27.8418 201.361 28.2246 201.471 28.416C201.58 28.5801 201.772 28.7305 202.045 28.8672C202.154 28.9219 202.332 29.0039 202.578 29.1133C202.797 29.2227 203.084 29.3594 203.44 29.5234C203.822 29.6875 204.301 29.8789 204.875 30.0977C203.809 30.1523 202.893 30.1934 202.127 30.2207C201.361 30.2207 200.732 30.2344 200.24 30.2617C199.666 30.2891 199.174 30.3164 198.764 30.3438C198.354 30.3438 197.861 30.3711 197.287 30.4258C196.795 30.4805 196.152 30.5352 195.359 30.5898C194.594 30.6445 193.691 30.6992 192.652 30.7539C193.199 30.3711 193.637 30.0293 193.965 29.7285C194.32 29.4004 194.594 29.127 194.785 28.9082C195.004 28.6348 195.154 28.3887 195.236 28.1699C195.291 27.9238 195.332 27.5547 195.359 27.0625C195.387 26.625 195.387 26.0508 195.359 25.3398C195.332 24.6016 195.264 23.6445 195.154 22.4688L184.367 23.5762C184.094 24.041 183.889 24.4512 183.752 24.8066C183.615 25.1348 183.52 25.4219 183.465 25.668C183.383 25.9688 183.356 26.2148 183.383 26.4062C183.438 26.625 183.533 26.8848 183.67 27.1855C183.807 27.459 183.998 27.7871 184.244 28.1699C184.518 28.5254 184.914 28.9492 185.434 29.4414C184.75 29.4141 184.053 29.4004 183.342 29.4004C182.631 29.4004 181.975 29.4141 181.373 29.4414C180.662 29.4688 179.965 29.4961 179.281 29.5234C178.598 29.5508 177.818 29.5918 176.943 29.6465C176.205 29.7012 175.344 29.7695 174.359 29.8516C173.348 29.9062 172.268 29.9883 171.119 30.0977C171.83 29.7695 172.432 29.4414 172.924 29.1133C173.416 28.7578 173.826 28.4297 174.154 28.1289C174.537 27.8008 174.865 27.4863 175.139 27.1855C175.33 26.9121 175.713 26.2832 176.287 25.2988C176.861 24.2871 177.504 23.0977 178.215 21.7305C178.953 20.3633 179.719 18.9004 180.512 17.3418C181.332 15.7832 182.07 14.3203 182.727 12.9531C183.383 11.5586 183.916 10.3555 184.326 9.34375C184.736 8.33203 184.941 7.67578 184.941 7.375C184.887 7.01953 184.75 6.62305 184.531 6.18555C184.34 5.80273 184.039 5.36523 183.629 4.87305C183.246 4.38086 182.686 3.83398 181.947 3.23242ZM194.662 19.4336C194.498 18.4766 194.348 17.6562 194.211 16.9727C194.074 16.2617 193.965 15.6738 193.883 15.209C193.773 14.6621 193.691 14.1836 193.637 13.7734C193.555 13.3906 193.459 12.8984 193.35 12.2969C193.24 11.7773 193.104 11.1348 192.94 10.3691C192.803 9.57617 192.625 8.63281 192.406 7.53906C190.848 10.6562 189.631 13.0762 188.756 14.7988C187.908 16.4941 187.293 17.7383 186.91 18.5312C186.445 19.4609 186.186 20.0078 186.131 20.1719L194.662 19.4336Z" fill="#EEA539"/>
</g>
<defs>
<filter id="filter0_d_198_3" x="0.103577" y="0.197266" width="208.771" height="38.8848" filterUnits="userSpaceOnUse" color-interpolation-filters="sRGB">
<feFlood flood-opacity="0" result="BackgroundImageFix"/>
<feColorMatrix in="SourceAlpha" type="matrix" values="0 0 0 0 0 0 0 0 0 0 0 0 0 0 0 0 0 0 127 0" result="hardAlpha"/>
<feOffset dy="4"/>
<feGaussianBlur stdDeviation="2"/>
<feComposite in2="hardAlpha" operator="out"/>
<feColorMatrix type="matrix" values="0 0 0 0 0 0 0 0 0 0 0 0 0 0 0 0 0 0 0.25 0"/>
<feBlend mode="normal" in2="BackgroundImageFix" result="effect1_dropShadow_198_3"/>
<feBlend mode="normal" in="SourceGraphic" in2="effect1_dropShadow_198_3" result="shape"/>
</filter>
</defs>
</svg>
